<svg xmlns="http://www.w3.org/2000/svg" viewBox="0 0 389.02 93.39"><defs><style>.cls-1{fill:#1c1c1c;}.cls-2{fill:#383838;}.cls-3{fill:#545454;}.cls-4{fill:#707070;}.cls-5{fill:#8c8c8c;}.cls-6{fill:#a8a8a8;}.cls-7{fill:#c4c4c4;}.cls-8{fill:none;stroke:#15b7b9;stroke-linecap:round;stroke-miterlimit:10;stroke-width:2px;}</style></defs><title>jaja sí</title><g id="Capa_2" data-name="Capa 2"><g id="Capa_2-2" data-name="Capa 2"><path class="cls-1" d="M41.63,93.09c-2.9.19-4.24.51-5.3.09,0-.33-3.95-.67-5.32-.38-2.88.59-3.26.14-5.31-.48-.9-.48-5-.08-6.13-.37-3.11-.12-5.16-.74-6.2-.18-1.91,0-5.08.58-6.23,0-1.64.28-3.66,0-6.17.16,1.15-.62.83-2.81.14-3.51.66-1.33.32-2.22.12-3.5,1.2-.9.67-2.18.09-3.5a34,34,0,0,1,.08-3.5c.35-1.74-.17-2.49.06-3.5s-.38-2.28,0-3.51c.63-.71,1.37-1.42,0-3.5.44-1.26,1.07-2.4,0-3.5.34-1.64.45-2.2,0-3.5-.74-1,.64-2.61,0-3.51C1.33,55.82,0,54.72,1.4,53.4c-.28-.64.55-2.47-.08-3.5a7,7,0,0,1-.1-3.5c.25-.57-.82-2.16-.11-3.51A10.61,10.61,0,0,1,1,39.39c.33-.85,0-2.21-.16-3.5.54-.87-.37-2.51-.18-3.5.73-.88-.11-2.44-.19-3.5a5.35,5.35,0,0,0-.22-3.5c.73-1.33-.56-1.9-.13-2.58,1.26-.72.41-1.76.09-2.57,0-.69.79-1.75.55-2.55.22-.43-.43-.57.53-1.07.78-.59-1-1.12.3-1-.47,0,1.57-.55.67-1,0-.09-.54-1,0-1.07-1.41-.85,1.26-1.48,0-1.28-.39-.39.57-1.18.1-1.14.44-.18-.13-1,0-1.17C3,9.74,1.6,8.44,2,8.7c-.29-.93-1.41-.92-.12-1.23-.23,0-.27-.63-.21-1.36,1,.43,0-1.28.1-1.23.09-.91,0-1-.25-1.3,1.22-.74.6-.84-.16-1.33,1.29-.61.27-.9-.17-1.25A27.56,27.56,0,0,1,4.77.81a11.77,11.77,0,0,1,3.55,0,25.5,25.5,0,0,1,3.7,0,7.57,7.57,0,0,1,3.49,0A7.13,7.13,0,0,0,19.35,1c2.29-.26,2.54.16,3.37,0,1.8,0,2.19.36,3.6.08a33.39,33.39,0,0,0,3.6.05c.7.59,2.92.25,4.41,0a13.45,13.45,0,0,1,4.41-.07C40.31.87,42.53,1,43.14.91c.68,1.07-1.42,2.42,0,3.33,1.08.67-1.38,1.8,0,3.33a8.43,8.43,0,0,1,0,3.32c1.07,1.22-.17,2.85,0,3.32,1,1.17-.57,1.58,0,3.31,1.19.77.27,1.71,0,3.32a8.7,8.7,0,0,0,0,3.31c-1.07.94.42,2.67,0,3.32-1.49.48-1.49,2.47,0,3.31-.13,1.5.16,2.21,0,3.33.57,1.26,1.31,2.11,0,3.32-.49.46.84,2,0,3.34-.41.63-.18,1.83,0,2.78,1,1-1.9,2,0,2.78,1.06,1.73-.87,1.63,0,2.78-.24.93-1.07,1.48,0,2.78.24,1.14-2.39,2.5,0,3.41.48,1.2.67,2.85,0,3.42.85,1.13.63,2-.06,3.43,0,1.63-1.43,2.5-.1,3.44-1.29.83.2,2-.11,3.45-.86,1.24.77,2.1-.13,3.45.5,1.25.22,3.32-.15,3.45-1.44,1.37-.29,1.74-.16,3.45-.57,1.54-1.05,2.4-.16,3.44-.37.82-1.15,2.44-.16,3.44,1.35,1.55-.36,1.6-.17,3.42C39.87,91.13,42.08,91.76,41.63,93.09Z"/><path class="cls-2" d="M99.17,47.43c-.2,1.5-2.15,1.76-.9,3.1a2.12,2.12,0,0,0-.57,3.12c1.54.48-.53,2.3-.3,3.13-1.82,1.18.8,1.8-.1,3.14-1.32,1.24-.58,2.43,0,3.13a7.11,7.11,0,0,0,.06,3.27c.31.94,0,2.12.05,3.27-1.19,1.19,1.13,1.82.06,3.27.07,1.32-.35,2.24.09,3.27.08,1-.88,2,.14,3.28.13,1.44.89,2,.21,3.27-.12,1.22.51,2.48.29,3.27,1.14,1.49-.89,2.24.39,3.26.24,1-1.34,2.48.52,3.26-1.75.08-3.5-.54-4.47-.09-.31-.82-4.24.52-4.48-.08-.72,0-2,0-4.91-.08-1.87-.51-3.51.43-4.91,0a22.41,22.41,0,0,1-4.9.14c-3.34-.91-2.46.3-5.67.33-1.68-.1-4,.14-5.73.22.21-.3-3.86-.61-5.54-.33,1.47-1.2.46-2.34-.09-3.51.6-1.23,2.46-2.2-.1-3.51C59,84.49,58.07,83,58.24,82c-.62-1.36,2.83-2.3-.09-3.51.82-1.78.24-2.36-.09-3.52s1.2-2.23-.09-3.51c.67-1.22,1.2-2.38-.09-3.51-.55-1.22.62-2.64-.09-3.51,0-1.69-.38-2.24-.1-3.51-.77-1.49.14-2.48-.09-3.51,1.42-1-.11-2.19-.09-3.51.76-.86-.1-1.73-.09-3.51a2.52,2.52,0,0,1-.09-3.51c1.61.54,4.37.09,6.73-.21,2.2-.45,5.65.48,7,0a38.94,38.94,0,0,0,7.16.09,53.33,53.33,0,0,0,7.17.18c2.9.08,5.49.24,7,.23A46.73,46.73,0,0,0,99.17,47.43Z"/><path class="cls-3" d="M156.81,92.27a27.22,27.22,0,0,1-6.8.09c-1.39-.51-4.2.14-6.82,0-2.91,0-4.84,0-6.84,0-2.68.5-3.64.11-6.84,0-3.55.26-5.6.45-6.83,0-3.1.3-2.79-.09-6.79,0-.38-.7-1.48-1.89-.56-3.13.3-1.17-1.46-1.77-.3-3.14-.42-.93-.12-2-.1-3.14.14-.83-.1-1.87,0-3.15-.62-1.22.44-2.45.1-3.14a3.77,3.77,0,0,0,.09-2.87c-.25-1-.78-2.13.09-2.92.21-1.4-.37-2.07.1-2.93-1.6-.86,2.64-2.17.09-2.92a3.46,3.46,0,0,1,.1-2.87,20.13,20.13,0,0,1,4.22-.34,23.25,23.25,0,0,1,4.26-.21,15.4,15.4,0,0,0,4.28-.06c1.33,0,4.52,0,5.65.16,1.79.15,3.6.2,5.65.33a33.3,33.3,0,0,0,5.63.34,54.6,54.6,0,0,1,5.62.18c3.66-.36,2.74.09,5.62-.13.68.28.84,1.12.42,1.94.46.57.86,1,.43,2,.72.73,1.36.74.36,1.62a1.93,1.93,0,0,1,.23,1.63c-.43.59.05,1.44,0,1.67a5.5,5.5,0,0,1-.15,1.67c.33,1,.83,2-.35,3.24-.06,1.29-.76,2.48-.36,3.22-.54.86.77,1.81-.29,3.2.61.86-.08,2.09-.17,3.21.35,1.22-.2,2.05,0,3.21C157,90.41,157.41,91.28,156.81,92.27Z"/><path class="cls-4" d="M218.46,92.4c-2-.24-4.52.21-6.53-.14-1.26-.2-5.76.22-6.56-.11-2.49.55-3.31-.14-6.57-.08-2,.76-4.38.2-6.58,0-3.51-.23-4.43,0-6.57,0,.91.11-3-.22-6.56,0-1.5-.75-4.07.74-6.54,0,1-.66.15-2.09,0-2.79-1.57-1,0-1.9,0-2.8-.14-1.36.77-1.29,0-2.8.08-.94-1.14-1.9,0-2.8,1.13-.36.18-1.59,0-2,.73-.33-.68-1.25-.27-2,1.38-.82-.58-1.62-.8-2.55-.08-.56-2.42-1.78-.42-2.55-.78-.53-.3-1.47,1-2.42,2,0,4,.27,6.61.23s5.5.19,6.65-.12c1.48-.44,4.64,0,6.67-.33,3.37-.12,4.76-.22,6.67-.37,1.79-.67,4.66-.1,6.65-.26,1.48-.6,4.14-.33,6.6,0,.79.44,6,0,6.53.43.84.84.59,2.3.69,3.25,2,1.17.44,2.1.49,3.36-.11.52.69,1.57.26,3.41-.57,1,.37,2.27,0,3.44.61.91,2.2,2.62-.22,3.41-.69,1.22-.16,2.44-.5,3.35C217.78,90.05,218.43,91.19,218.46,92.4Z"/><path class="cls-5" d="M272.21,74.22c-.33.37.16.88,0,1.51-1.08.78.53,1.1-.12,1.5,1.2.56.13,1-.11,1.49.07.86-.24.9.29,1.53.26.78-.2,1,.34,1.51a1.87,1.87,0,0,1,0,1.52c.72.43.14.84.4,1.47a1.38,1.38,0,0,0,0,1.56c-.24.48.15,1.29.37,1.68.33.6.48,1.05-.12,1.34a3.08,3.08,0,0,1-.17,1.51,1.86,1.86,0,0,0,.13,1.5,30.11,30.11,0,0,1-7.16.21,20.09,20.09,0,0,0-7.05.09,33.29,33.29,0,0,1-7,0c-1.88-.11-4.24,0-7-.16-2.53-.16-4-.15-7-.27-3.18-.43-4.65.1-7.12-.39.07.24-.82-.43,0-.34a3,3,0,0,1-.8-2.85,2.41,2.41,0,0,0-.5-2.87,4.26,4.26,0,0,1,.1-2.87c.38-.45.51-1.14.24-1.07-1.28-1,1.87-.38.25-1.07,0-1-1-1.33.23-2.15.41-.1-1.46-1.08-.15-2.16,0-.32.7-1.59-.56-2.14,2,0,4.78.07,7.13,0,4.15-.16,4.84-.46,7.09,0a19,19,0,0,1,3.15,0,34.07,34.07,0,0,0,3.91,0,21.87,21.87,0,0,1,2.78-.22,8.34,8.34,0,0,1,4.28.18c2.44.08,2.87.19,3.76,0a13.06,13.06,0,0,1,3.33,0,10.31,10.31,0,0,1,3.36,0C270.5,74.11,271.9,74.46,272.21,74.22Z"/><path class="cls-6" d="M287.48,77.32c3.46-.49,4.78,0,6.83,0,1.24-.51,3.89-.17,6.84-.09a21.19,21.19,0,0,0,6.83-.12c1.8.13,4-.46,6.83-.17,2.13-.12,5.11.06,6.82-.2a57.11,57.11,0,0,1,6.82-.24c-.44.57.76.79.89.67,1.54,1.06,0,1.89.44,3a11.53,11.53,0,0,0-.31,3,3.26,3.26,0,0,0-.6,3,9.63,9.63,0,0,0-.45,3c.67.76-.8,1.86.12,3-1.89.39-4.73-.11-6.66-.09-3.19-.44-5.38.33-6.69,0a26,26,0,0,0-6.68.11c-3.87-.27-5-.5-6.69.19a50.56,50.56,0,0,0-6.67.24c-2,.13-4.47.23-6.65.29.09-1-.83-1.91-.18-3.07a4.14,4.14,0,0,0-.28-3.12c.33-1.48-.82-1.93-.29-3.14-.38-1.47,0-2.32-.22-3.13A19.13,19.13,0,0,1,287.48,77.32Z"/><path class="cls-7" d="M388.65,80.69a5.23,5.23,0,0,1,0,2.41c-.05,1.17-1.26,2.09,0,2.43.58.62.29,1.77,0,2.45.22,1.25.69,1.92,0,2.43a2.64,2.64,0,0,1,0,2.41c-2.46,0-3.21.36-5.31,0-1.41.22-2.54-.22-5.32,0a22.13,22.13,0,0,1-5.33,0c-1.49-.78-3.92.25-5.32-.07-.91.54-3.14-.45-5.33-.09-1.68-.44-4.42,0-5.32-.12-1.77-.38-3.28.47-5.31-.14a36.65,36.65,0,0,0-5.3-.15,4.4,4.4,0,0,0-.45-2.2c1.07-1.1.18-1.43-.3-2.2.18-.2-.34-1.37-.17-2.21.74-1.21.22-1.34,0-2.2.73-.42-.55-1.28.1-2.21a29.59,29.59,0,0,1,5.56,0c1.39.51,4.15-.4,5.44-.06,3.12,0,4.17-.23,5.37-.07,2.62.13,3.45-.14,5.33-.08,2.76.08,3-.36,5.33-.07a22.18,22.18,0,0,1,5.37-.07,41.11,41.11,0,0,1,5.45-.06C385.35,80.27,386.63,81.09,388.65,80.69Z"/><path class="cls-8" d="M22.08,1a27.7,27.7,0,0,1,3,2,25.43,25.43,0,0,1,3,2.05A7.53,7.53,0,0,1,31,7.15c1.13.95,2,1.32,2.83,2.1.22.88,2.09,1.42,2.77,2.11.46.46,2,1.5,2.7,2.14,1.12.91,1.94.94,2.64,2.15a5.15,5.15,0,0,0,2.56,2.17c.57.92,1.72,1.36,2.49,2.19a6.35,6.35,0,0,1,2.43,2.21c.58.53,1.15,1.94,2.35,2.22s1.09,1.58,2.28,2.24c.48,1,1.44,1.37,2.21,2.26.62,1.16,1,.86,2,2.09,1.38.71,1.36,1.62,2,2.09,1,1,1.29,1.72,2,2.08a22.61,22.61,0,0,0,2.15,2c0,.55,1.55,1.44,2.31,2,1.1,1.17,1.09,1.42,2.5,1.93A8.43,8.43,0,0,1,72,43c1.41.73,2,1.88,3,1.72a7.91,7.91,0,0,0,3.39,1.59c.87-.09,1,.19,1.58.68a2.27,2.27,0,0,0,1.77.52,22.92,22.92,0,0,1,4.79.95c1.17.33,3.27.47,4.73,1A31.52,31.52,0,0,1,96,50.57c1.61.55,3.08.71,4.6,1.15,1.24.22,3.18.82,4.52,1.2,1.59.54,2.62.71,4.45,1.27a26,26,0,0,1,4.37,1.33c1.28.5,2.9.83,4.29,1.38,1.2.33,2.8,1,3.69,1.25,1,.52,2.47.74,3.74,1.23a10.25,10.25,0,0,1,3.83,1.14,22.46,22.46,0,0,0,4,1,40.48,40.48,0,0,0,4.22.72c1.93.41,3.32.11,4.72.66a29.45,29.45,0,0,1,4.7.71,28,28,0,0,0,4.69.72,41.6,41.6,0,0,1,4.69.71c1.84.34,3.14.42,4.72.66s3.2.46,4.75.59,3.3.54,4.8.49,2.46.21,4.29.38c1.41-.07,2.64.35,4.29.39a31.1,31.1,0,0,1,4.28.38,20.65,20.65,0,0,1,4.29.38c1.3,0,3.5.5,4.29.38,2.13,0,2.89.42,4.28.38a20.33,20.33,0,0,0,4.7.45c1.49.25,3.2.32,4.68.49a15.07,15.07,0,0,0,4.65.52,30,30,0,0,0,4.64.52c1.77.19,3.26.28,4.64.51,1.73.21,3,.3,4.66.46s3.34.34,4.68.4c1.86.22,3.42.24,4.72.32a24.89,24.89,0,0,0,4.77.21,33.9,33.9,0,0,0,4,.12,36.82,36.82,0,0,0,4,.17c1.2,0,2.83.23,3.89.31a17.49,17.49,0,0,0,3.78.54,30.28,30.28,0,0,0,4.65.74,37.64,37.64,0,0,0,4.74.6c1.76.12,3.14.44,4.83.46,2,.3,3.12-.08,4.9.34,1.58-.1,3.45.46,4.95.26a24.85,24.85,0,0,0,5,.19c1.23-.41,3.69.18,5,.14,1.87,0,3.07.26,5,.12a29.84,29.84,0,0,1,5,.12,19.9,19.9,0,0,1,5,.14c1.47,0,3.15,0,4.93.18a32.41,32.41,0,0,1,4.92.22c1.76,0,3.24.11,4.93.24s3.23.11,4.92.26c1.85.08,3.44.26,4.93.29a18.39,18.39,0,0,1,4.93.3c1.34.17,3.07,0,4.92.32a42,42,0,0,1,4.93.33,30.6,30.6,0,0,1,4.91.35c1.88.08,3.06.22,4.91.36s3.45.36,4.89.38a38.06,38.06,0,0,1,4.89.38,23.75,23.75,0,0,0,4.87.4"/></g></g></svg>