<svg xmlns="http://www.w3.org/2000/svg" viewBox="0 0 389 93"><g data-name="Capa 2"><path fill="#1c1c1c" d="M42 93h-6-5l-5-1H1v-4-3-4a34 34 0 0 1 0-3v-4-3c1-1 2-2 0-4 1-1 2-2 0-3v-4-3-4-3a7 7 0 0 1 0-4v-3a11 11 0 0 1 0-4v-3-4l-1-3a5 5 0 0 0 0-4v-2-3l1-2v-1c1-1-1-1 1-1v-1-1c-1-1 2-2 0-2v-1-1-1-2-1-1-1c1-1 0-1-1-2 2 0 1-1 0-1a28 28 0 0 1 4 0 12 12 0 0 1 3 0 26 26 0 0 1 4 0 8 8 0 0 1 4 0 7 7 0 0 0 3 0h7a33 33 0 0 0 4 0h4a13 13 0 0 1 5 0h4v7a8 8 0 0 1 0 3v10a9 9 0 0 0 0 3v3 17c1 1-2 2 0 2v6c0 1-2 2 0 3v11 3 7c-2 1-1 2-1 3v11c-2 1 0 2 0 3z"/><path fill="#383838" d="M99 47c0 2-2 2-1 4a2 2 0 0 0 0 3l-1 3v3 3a7 7 0 0 0 0 3v4c-1 1 2 1 0 3l1 3v10c1 1-1 2 1 3 0 1-2 3 0 3H80a22 22 0 0 1-5 0c-3-1-2 1-5 1h-6-5c1-2 0-3-1-4 1-1 3-2 0-3v-4c0-1 3-2 0-4v-3-4-7-7-3l-1-4a3 3 0 0 1 0-3h14a39 39 0 0 0 7 0 53 53 0 0 0 7 0h7a47 47 0 0 0 7 0z"/><path fill="#545454" d="M157 92a27 27 0 0 1-7 0h-34s-2-2-1-3v-3-3-6a4 4 0 0 0 0-3v-3-3c-1-1 3-2 0-3a3 3 0 0 1 0-3 20 20 0 0 1 5 0 23 23 0 0 1 4 0 15 15 0 0 0 4 0h12a33 33 0 0 0 5 0 55 55 0 0 1 6 1l5-1 1 2v2c1 1 2 1 1 2a2 2 0 0 1 0 2v1a6 6 0 0 1 0 2c0 1 1 2-1 3v3 13z"/><path fill="#707070" d="M218 92h-32-13v-3c-2-1 0-2 0-3v-2c0-1-2-2 0-3v-2l-1-2c2-1 0-2-1-3 0 0-2-1 0-2-1-1 0-2 1-3l7 1 6-1h33l1 3c2 1 1 2 1 4v3 3c0 1 2 3 0 4l-1 3-1 3z"/><path fill="#8c8c8c" d="M272 74v2 4l1 2a2 2 0 0 1 0 1v2a1 1 0 0 0 0 1v3a3 3 0 0 1 0 2 2 2 0 0 0 0 1 30 30 0 0 1-7 1 20 20 0 0 0-7 0 33 33 0 0 1-7 0l-7-1h-14v-1a3 3 0 0 1-1-2 2 2 0 0 0 0-3 4 4 0 0 1 0-3v-1c-1-1 2-1 0-1v-2-3-2h14a19 19 0 0 1 3 0 34 34 0 0 0 4 0 22 22 0 0 1 3 0 8 8 0 0 1 4 0h4a13 13 0 0 1 3 0 10 10 0 0 1 3 0h4z"/><path fill="#a8a8a8" d="M287 77h14a21 21 0 0 0 7 0h14a57 57 0 0 1 6-1l1 1c2 1 0 2 1 3a12 12 0 0 0-1 3 3 3 0 0 0 0 3 10 10 0 0 0-1 3l1 3h-14a26 26 0 0 0-6 0h-7a51 51 0 0 0-7 1h-7v-3a4 4 0 0 0 0-3v-7a19 19 0 0 1-1-3z"/><path fill="#c4c4c4" d="M389 81a5 5 0 0 1 0 2c0 1-2 2 0 3v4a3 3 0 0 1 0 3h-11a22 22 0 0 1-5 0h-16l-6-1a37 37 0 0 0-5 0 4 4 0 0 0 0-2c1-1 0-1-1-2v-2-3-2a30 30 0 0 1 6 0h21a22 22 0 0 1 6 0 41 41 0 0 1 5 0h6z"/><path fill="none" stroke="#15b7b9" stroke-linecap="round" stroke-miterlimit="10" stroke-width="2" d="M22 1a28 28 0 0 1 3 2 25 25 0 0 1 3 2 8 8 0 0 1 3 2l3 2 3 2 2 2 3 3a5 5 0 0 0 3 2l2 2a6 6 0 0 1 2 2l3 2 2 3 2 2 2 2 2 2 2 2a23 23 0 0 0 2 2l3 2 2 2a8 8 0 0 1 3 2l3 2a8 8 0 0 0 3 1l2 1a2 2 0 0 0 2 1 23 23 0 0 1 5 0l4 1a32 32 0 0 1 5 2l5 1 4 1 5 1a26 26 0 0 1 4 2l4 1 4 1 4 1a10 10 0 0 1 3 2 22 22 0 0 0 4 1 40 40 0 0 0 5 0l4 1a29 29 0 0 1 5 1 28 28 0 0 0 5 0 42 42 0 0 1 5 1l4 1h5l5 1h4l4 1a31 31 0 0 1 5 0 21 21 0 0 1 4 0l4 1h4a20 20 0 0 0 5 1h5a15 15 0 0 0 5 1 30 30 0 0 0 4 0l5 1h9l5 1a25 25 0 0 0 5 0 34 34 0 0 0 4 0 37 37 0 0 0 4 0l4 1a17 17 0 0 0 3 0 30 30 0 0 0 5 1 38 38 0 0 0 5 0l5 1h9a25 25 0 0 0 5 1h10a30 30 0 0 1 5 0 20 20 0 0 1 5 0h5a32 32 0 0 1 5 1h15a18 18 0 0 1 5 1h5a42 42 0 0 1 5 0 31 31 0 0 1 5 1h10a38 38 0 0 1 4 1 24 24 0 0 0 5 0"/></g></svg>